<?xml version="1.0" standalone="no"?><!DOCTYPE svg PUBLIC "-//W3C//DTD SVG 1.1//EN" "http://www.w3.org/Graphics/SVG/1.1/DTD/svg11.dtd"><svg t="1639713188216" class="icon" viewBox="0 0 1024 1024" version="1.1" xmlns="http://www.w3.org/2000/svg" p-id="6626" width="180" height="180" xmlns:xlink="http://www.w3.org/1999/xlink"><defs><style type="text/css"></style></defs><path d="M516.5 862.3l-162.1-93.6V581.6L516.5 488l162.1 93.6v187.1l-162.1 93.6zM374.4 757.2l142.1 82 142.1-82v-164l-142.1-82-142.1 82v164z" fill="#768a95" p-id="6627"></path><path d="M915.4 920.5c-1.7 0-3.4-0.4-5-1.3l-394-227.5-394 227.5c-4.8 2.8-10.9 1.1-13.7-3.7s-1.1-10.9 3.7-13.7l399-230.4c3.1-1.8 6.9-1.8 10 0l399 230.4c4.8 2.8 6.4 8.9 3.7 13.7-1.9 3.2-5.2 5-8.7 5z" fill="#768a95" p-id="6628"></path><path d="M506.5 219.4h20v460.7h-20z" fill="#768a95" p-id="6629"></path><path d="M563.9 245.6h-0.4s-17.2 27.5-46.3 26.5c-30.9-1.1-46.7-27.6-46.7-27.6l15.8-76.1 26.9-128.8 31.1 126.6 19.4 78.9 0.2 0.5zM836.9 901.5l0.2-0.2s-10.1-21.4 2-38.7c12.8-18.5 35.3-17.7 35.3-17.7l40.3 39.6 68.2 67.1-89.7-30.8-55.9-19.2-0.4-0.1zM188.5 907.4l-0.2-0.2s10.1-21.4-2-38.7C173.5 850 151 850.8 151 850.8l-40.3 39.6-68.2 67.1 89.7-30.8 55.9-19.2 0.4-0.1z" fill="#768a95" p-id="6630"></path></svg>